<svg width="28" height="28" viewBox="0 0 28 28" fill="none" xmlns="http://www.w3.org/2000/svg">
<rect x="0.438232" width="27.3596" height="27.3596" rx="8.61287" fill="white"/>
<path d="M10.1348 8.37738C10.6347 8.37738 11.0971 8.41647 11.5195 8.53216C11.9028 8.60255 12.2687 8.74699 12.5967 8.9574C12.9049 9.15048 13.1357 9.42173 13.289 9.76959C13.4431 10.1174 13.5198 10.5435 13.5198 11.007C13.5198 11.5487 13.4048 12.0123 13.1357 12.3601C12.9049 12.7088 12.52 13.0176 12.0585 13.2497C12.7125 13.4436 13.2123 13.7914 13.5198 14.255C13.828 14.7193 14.0204 15.2993 14.0204 15.9567C14.0204 16.4985 13.9047 16.962 13.7122 17.349C13.5198 17.7359 13.2123 18.0838 12.8658 18.3159C12.4894 18.5648 12.0732 18.7477 11.6353 18.8569C11.1737 18.9733 10.7122 19.0507 10.2506 19.0507H5.0946V8.37738H10.1348ZM9.82663 12.708C10.2498 12.708 10.5964 12.5923 10.8655 12.3992C11.1346 12.2061 11.2504 11.8575 11.2504 11.4323C11.2504 11.2001 11.2113 10.9679 11.1346 10.8139C11.0579 10.6592 10.9422 10.5427 10.7888 10.427C10.6347 10.3496 10.4806 10.2722 10.2882 10.2339C10.0957 10.1948 9.90408 10.1948 9.67252 10.1948H7.44145V12.7088H9.82741L9.82663 12.708ZM9.94241 17.2716C10.1732 17.2716 10.404 17.2325 10.5964 17.1942C10.7907 17.1573 10.9745 17.078 11.1346 16.962C11.2914 16.8488 11.4225 16.704 11.5195 16.5368C11.5962 16.3437 11.6736 16.1115 11.6736 15.8411C11.6736 15.2993 11.5195 14.9124 11.2121 14.6419C10.9038 14.4098 10.4806 14.2941 9.98074 14.2941H7.44145V17.2723H9.94241V17.2716ZM17.3678 17.2325C17.6753 17.542 18.1368 17.6968 18.7525 17.6968C19.1757 17.6968 19.5606 17.5811 19.868 17.388C20.1762 17.1559 20.3687 16.9237 20.4453 16.6915H22.3306C22.0224 17.6194 21.5609 18.2768 20.946 18.7021C20.3295 19.089 19.5989 19.3212 18.7141 19.3212C18.1481 19.3229 17.5867 19.2179 17.0596 19.0116C16.5853 18.8338 16.1623 18.5417 15.8283 18.1611C15.471 17.8051 15.2069 17.3667 15.0593 16.8846C14.8669 16.382 14.7894 15.8411 14.7894 15.2219C14.7894 14.6419 14.8669 14.101 15.0593 13.5976C15.2443 13.113 15.5181 12.6671 15.8666 12.2828C16.2132 11.9349 16.6364 11.6261 17.0979 11.4323C17.6117 11.2259 18.1605 11.1208 18.7141 11.1227C19.3681 11.1227 19.9454 11.2392 20.4453 11.5097C20.946 11.7801 21.3301 12.0897 21.6383 12.554C21.9527 13 22.187 13.4973 22.3306 14.0236C22.4073 14.5645 22.4456 15.1063 22.4073 15.7246H16.8288C16.8288 16.3437 17.0596 16.9237 17.3678 17.2333V17.2325ZM19.7913 13.1723C19.5222 12.9019 19.099 12.7471 18.5984 12.7471C18.2526 12.7471 17.9827 12.8245 17.7519 12.9402C17.5212 13.0566 17.3678 13.2114 17.2137 13.3662C17.0721 13.5157 16.9784 13.7041 16.9446 13.9071C16.9055 14.101 16.8672 14.255 16.8672 14.4098H20.3295C20.2529 13.8297 20.0604 13.4436 19.7913 13.1723ZM16.4056 9.11218H20.7144V10.1565H16.4064V9.11218H16.4056Z" fill="#9CA6AF"/>
</svg>
