<svg width="29" height="28" viewBox="0 0 29 28" fill="none" xmlns="http://www.w3.org/2000/svg">
<rect x="0.719116" width="27.3596" height="27.3596" rx="8.61287" fill="white"/>
<path d="M14.5519 11.915C14.0439 11.915 13.5568 12.1168 13.1976 12.4759C12.8385 12.8351 12.6367 13.3222 12.6367 13.8302C12.6367 14.3381 12.8385 14.8252 13.1976 15.1844C13.5568 15.5436 14.0439 15.7453 14.5519 15.7453C15.0598 15.7453 15.5469 15.5436 15.9061 15.1844C16.2653 14.8252 16.467 14.3381 16.467 13.8302C16.467 13.3222 16.2653 12.8351 15.9061 12.4759C15.5469 12.1168 15.0598 11.915 14.5519 11.915ZM14.5519 10.6382C15.3984 10.6382 16.2103 10.9745 16.8089 11.5731C17.4075 12.1717 17.7438 12.9836 17.7438 13.8302C17.7438 14.6767 17.4075 15.4886 16.8089 16.0872C16.2103 16.6858 15.3984 17.0221 14.5519 17.0221C13.7053 17.0221 12.8934 16.6858 12.2948 16.0872C11.6962 15.4886 11.3599 14.6767 11.3599 13.8302C11.3599 12.9836 11.6962 12.1717 12.2948 11.5731C12.8934 10.9745 13.7053 10.6382 14.5519 10.6382ZM18.7014 10.4786C18.7014 10.6902 18.6173 10.8932 18.4677 11.0429C18.318 11.1925 18.1151 11.2766 17.9034 11.2766C17.6918 11.2766 17.4888 11.1925 17.3392 11.0429C17.1895 10.8932 17.1054 10.6902 17.1054 10.4786C17.1054 10.267 17.1895 10.064 17.3392 9.91435C17.4888 9.7647 17.6918 9.68062 17.9034 9.68062C18.1151 9.68062 18.318 9.7647 18.4677 9.91435C18.6173 10.064 18.7014 10.267 18.7014 10.4786ZM14.5519 8.72304C12.9725 8.72304 12.7146 8.72751 11.9798 8.76006C11.4793 8.78369 11.1435 8.85072 10.832 8.97201C10.5549 9.07926 10.3551 9.20758 10.1425 9.4208C9.9427 9.61385 9.78907 9.84953 9.69308 10.1103C9.57179 10.4231 9.50476 10.7582 9.48178 11.2581C9.44858 11.9629 9.44475 12.2093 9.44475 13.8302C9.44475 15.4095 9.44922 15.6674 9.48178 16.4022C9.5054 16.9021 9.57243 17.2385 9.69308 17.5494C9.80161 17.8271 9.92929 18.0269 10.1412 18.2389C10.3564 18.4534 10.5562 18.5817 10.8307 18.6877C11.1461 18.8096 11.4819 18.8773 11.9798 18.9002C12.6846 18.9334 12.931 18.9373 14.5519 18.9373C16.1312 18.9373 16.3892 18.9328 17.1239 18.9002C17.6232 18.8766 17.9596 18.8096 18.2711 18.6889C18.5475 18.5811 18.7486 18.4527 18.9606 18.2408C19.1757 18.0257 19.304 17.8258 19.41 17.5513C19.5313 17.2366 19.599 16.9002 19.622 16.4022C19.6552 15.6974 19.659 15.451 19.659 13.8302C19.659 12.2508 19.6545 11.9929 19.622 11.2581C19.5983 10.7589 19.5313 10.4218 19.41 10.1103C19.3138 9.8498 19.1604 9.61421 18.9612 9.4208C18.7683 9.22088 18.5326 9.06724 18.2718 8.97137C17.959 8.85008 17.6232 8.78305 17.1239 8.76006C16.4192 8.72687 16.1727 8.72304 14.5519 8.72304ZM14.5519 7.44626C16.2864 7.44626 16.5028 7.45264 17.1833 7.48456C17.8632 7.51648 18.326 7.62309 18.7333 7.78141C19.1547 7.94356 19.5096 8.16317 19.8645 8.51748C20.1892 8.83661 20.4403 9.22263 20.6006 9.6487C20.7583 10.0554 20.8655 10.5188 20.8975 11.1987C20.9275 11.8792 20.9358 12.0957 20.9358 13.8302C20.9358 15.5647 20.9294 15.7811 20.8975 16.4616C20.8655 17.1415 20.7583 17.6043 20.6006 18.0116C20.4408 18.4379 20.1896 18.824 19.8645 19.1428C19.5453 19.4673 19.1593 19.7185 18.7333 19.8789C18.3267 20.0366 17.8632 20.1438 17.1833 20.1758C16.5028 20.2058 16.2864 20.2141 14.5519 20.2141C12.8174 20.2141 12.6009 20.2077 11.9204 20.1758C11.2405 20.1438 10.7777 20.0366 10.3704 19.8789C9.94418 19.719 9.55808 19.4677 9.23919 19.1428C8.91451 18.8238 8.66332 18.4377 8.50312 18.0116C8.3448 17.605 8.23819 17.1415 8.20627 16.4616C8.17627 15.7811 8.16797 15.5647 8.16797 13.8302C8.16797 12.0957 8.17435 11.8792 8.20627 11.1987C8.23819 10.5182 8.3448 10.056 8.50312 9.6487C8.66287 9.22237 8.91412 8.83624 9.23919 8.51748C9.55817 8.19268 9.94424 7.94148 10.3704 7.78141C10.7777 7.62309 11.2399 7.51648 11.9204 7.48456C12.6009 7.45456 12.8174 7.44626 14.5519 7.44626Z" fill="#9CA6AF"/>
</svg>
