<svg width="783" height="385" viewBox="0 0 783 385" fill="none" xmlns="http://www.w3.org/2000/svg">
<path d="M139.835 9.76348L167.968 26.4467L172.198 20.3219L172.162 13.268L175.077 9.00941L146.551 8.76257L139.835 9.76348Z" fill="#36C2D9"/>
<path d="M139.835 9.76379L179.338 13.6399L185.336 26.1879L139.835 9.76379Z" fill="#CEE8F0"/>
<path d="M171.628 0.434448L175.077 9.01L139.835 9.76407L171.628 0.434448Z" fill="#CEE8F0"/>
<path d="M733.715 130.088L701.561 136.078L699.696 128.873L702.155 122.261L700.883 117.26L727.754 126.838L733.715 130.088Z" fill="#36C2D9"/>
<path d="M733.716 130.088L695.289 120.142L685.344 129.861L733.716 130.088Z" fill="#CEE8F0"/>
<path d="M707.073 110.394L700.885 117.261L733.717 130.088L707.073 110.394Z" fill="#CEE8F0"/>
<path d="M174.331 355.838C168.019 343.673 167.708 328.57 173.511 316.155C178.081 306.381 186.297 297.812 186.973 287.042C187.5 278.667 183.181 270.64 177.529 264.437C171.876 258.235 164.891 253.429 158.545 247.939C147.37 238.27 138.001 226.151 133.292 212.143C128.583 198.136 128.884 182.145 135.828 169.1C140.8 159.762 150.546 151.732 161.018 153.235C170.831 154.644 177.723 163.785 181.315 173.025C184.908 182.265 186.388 192.354 191.206 201.019C200.01 216.844 218.329 225.216 228.408 240.261C245.708 266.084 233.666 301.906 244.402 331.077C247.732 340.123 253.329 349.006 252.184 358.577C249.94 377.341 226.782 383.816 210.898 382.268C196.519 380.866 180.797 368.303 174.331 355.838Z" fill="#5584FF"/>
<path d="M198.272 376.58C198.004 376.58 197.736 376.486 197.52 376.295C150.018 334.183 138.72 256.19 138.612 255.406C138.525 254.787 138.957 254.215 139.577 254.13C140.203 254.033 140.768 254.475 140.855 255.095C140.962 255.87 152.154 333.051 199.023 374.599C199.491 375.014 199.534 375.731 199.119 376.198C198.895 376.451 198.585 376.58 198.272 376.58Z" fill="#BDD0FF"/>
<path d="M144.268 276.962C144.268 276.962 115.006 232.785 129.543 214.85C144.078 196.916 144.268 276.962 144.268 276.962Z" fill="#BDD0FF"/>
<path d="M150.662 296.095C150.662 296.095 100.486 279.06 101.01 255.98C101.533 232.901 150.662 296.095 150.662 296.095Z" fill="#BDD0FF"/>
<path d="M149.273 295.559C149.273 295.559 181 253.118 167.507 234.385C154.014 215.653 149.273 295.559 149.273 295.559Z" fill="#BDD0FF"/>
<path d="M154.985 312.252C154.985 312.252 194.5 276.947 184.99 255.91C175.478 234.874 154.985 312.252 154.985 312.252Z" fill="#BDD0FF"/>
<path d="M163.958 330.678C163.958 330.678 205.585 297.89 197.398 276.305C189.209 254.719 163.958 330.678 163.958 330.678Z" fill="#BDD0FF"/>
<path d="M174.525 349.179C174.525 349.179 216.153 316.391 207.965 294.806C199.776 273.22 174.525 349.179 174.525 349.179Z" fill="#BDD0FF"/>
<path d="M188.688 366.925C188.688 366.925 230.316 334.137 222.128 312.552C213.939 290.966 188.688 366.925 188.688 366.925Z" fill="#BDD0FF"/>
<path d="M156.905 313.343C156.905 313.343 104.019 310.04 98.4805 287.628C92.9429 265.215 156.905 313.343 156.905 313.343Z" fill="#BDD0FF"/>
<path d="M165.813 331.759C165.813 331.759 113.182 337.916 103.746 316.847C94.3102 295.778 165.813 331.759 165.813 331.759Z" fill="#BDD0FF"/>
<path d="M176.293 349.277C176.293 349.277 126.031 366.06 112.488 347.364C98.9445 328.668 176.293 349.277 176.293 349.277Z" fill="#BDD0FF"/>
<path d="M190.536 366.924C190.536 366.924 143.262 390.863 127.135 374.344C111.008 357.825 190.536 366.924 190.536 366.924Z" fill="#BDD0FF"/>
<path d="M554.801 375.954L553.9 374.939C600.9 333.274 612.11 255.934 612.218 255.158L613.56 255.344C613.452 256.125 602.179 333.953 554.801 375.954Z" fill="#5584FF"/>
<path d="M608.359 276.962C608.359 276.962 637.622 232.785 623.084 214.85C608.548 196.916 608.359 276.962 608.359 276.962Z" fill="#5584FF"/>
<path d="M601.96 296.096C601.96 296.096 652.136 279.06 651.612 255.981C651.089 232.901 601.96 296.096 601.96 296.096Z" fill="#5584FF"/>
<path d="M603.349 295.558C603.349 295.558 571.622 253.117 585.115 234.385C598.609 215.652 603.349 295.558 603.349 295.558Z" fill="#5584FF"/>
<path d="M597.639 312.252C597.639 312.252 558.125 276.946 567.635 255.91C577.145 234.874 597.639 312.252 597.639 312.252Z" fill="#5584FF"/>
<path d="M588.664 330.678C588.664 330.678 547.036 297.89 555.225 276.305C563.412 254.719 588.664 330.678 588.664 330.678Z" fill="#5584FF"/>
<path d="M578.094 349.179C578.094 349.179 536.467 316.39 544.655 294.806C552.842 273.22 578.094 349.179 578.094 349.179Z" fill="#5584FF"/>
<path d="M563.934 366.926C563.934 366.926 522.308 334.137 530.496 312.552C538.682 290.966 563.934 366.926 563.934 366.926Z" fill="#5584FF"/>
<path d="M595.718 313.342C595.718 313.342 648.603 310.04 654.142 287.628C659.681 265.215 595.718 313.342 595.718 313.342Z" fill="#5584FF"/>
<path d="M586.811 331.759C586.811 331.759 639.441 337.917 648.878 316.847C658.315 295.778 586.811 331.759 586.811 331.759Z" fill="#5584FF"/>
<path d="M576.329 349.277C576.329 349.277 626.59 366.06 640.134 347.364C653.679 328.669 576.329 349.277 576.329 349.277Z" fill="#5584FF"/>
<path d="M562.086 366.924C562.086 366.924 609.359 390.863 625.486 374.344C641.613 357.825 562.086 366.924 562.086 366.924Z" fill="#5584FF"/>
<path d="M574.03 155.426C573.755 154.987 573.434 154.571 573.057 154.191L394.292 10.3397C387.812 5.12498 378.571 5.13989 372.107 10.3736L194.364 154.322C193.957 154.735 193.622 155.188 193.342 155.664C192.171 157.228 191.473 159.165 191.473 161.26V375.479C191.473 378.357 192.775 380.926 194.817 382.646C196.442 384.007 198.544 384.832 200.825 384.832H566.743C569.024 384.832 571.127 384.007 572.751 382.646C574.794 380.926 576.096 378.357 576.096 375.479V161.26C576.095 159.055 575.315 157.03 574.03 155.426Z" fill="#FF9738"/>
<path d="M525.626 358.951H241.936C237.593 358.951 234.072 355.43 234.072 351.087V45.8966C234.072 41.5539 237.593 38.0331 241.936 38.0331H525.626C529.969 38.0331 533.489 41.5539 533.489 45.8966V351.087C533.489 355.43 529.969 358.951 525.626 358.951Z" fill="white"/>
<path d="M329.209 56.6194H253.711V63.8522H329.209V56.6194Z" fill="#CEE8F0"/>
<path d="M278.462 81.4851H253.711V88.718H278.462V81.4851Z" fill="#CEE8F0"/>
<path d="M349.327 81.4851H281.854V88.718H349.327V81.4851Z" fill="#CEE8F0"/>
<path d="M370.347 81.4851H351.698V88.718H370.347V81.4851Z" fill="#CEE8F0"/>
<path d="M308.3 95.0471H253.711V102.28H308.3V95.0471Z" fill="#CEE8F0"/>
<path d="M383.231 95.0471H311.011V102.28H383.231V95.0471Z" fill="#CEE8F0"/>
<path d="M481.898 95.0471H386.282V102.28H481.898V95.0471Z" fill="#CEE8F0"/>
<path d="M331.922 108.61H253.711V115.843H331.922V108.61Z" fill="#CEE8F0"/>
<path d="M290.33 135.735H253.711V142.968H290.33V135.735Z" fill="#CEE8F0"/>
<path d="M312.934 149.297H253.711V156.53H312.934V149.297Z" fill="#CEE8F0"/>
<path d="M351.814 149.297H317.003V156.53H351.814V149.297Z" fill="#CEE8F0"/>
<path d="M371.705 149.297H355.43V156.53H371.705V149.297Z" fill="#CEE8F0"/>
<path d="M277.672 162.86H253.711V170.093H277.672V162.86Z" fill="#CEE8F0"/>
<path d="M332.035 162.86H281.288V170.093H332.035V162.86Z" fill="#CEE8F0"/>
<path d="M362.889 162.86H335.538V170.093H362.889V162.86Z" fill="#CEE8F0"/>
<path d="M427.309 162.86H366.052V170.093H427.309V162.86Z" fill="#CEE8F0"/>
<path d="M289.991 176.422H253.711V183.655H289.991V176.422Z" fill="#CEE8F0"/>
<path d="M354.073 176.422H292.703V183.655H354.073V176.422Z" fill="#CEE8F0"/>
<path d="M410.019 176.422H357.804V183.655H410.019V176.422Z" fill="#CEE8F0"/>
<path d="M510.042 176.422H413.748V183.655H510.042V176.422Z" fill="#CEE8F0"/>
<path d="M312.708 189.985H253.711V197.217H312.708V189.985Z" fill="#CEE8F0"/>
<path d="M395.098 189.985H318.47V197.217H395.098V189.985Z" fill="#CEE8F0"/>
<path d="M509.703 189.985H400.864V197.217H509.703V189.985Z" fill="#CEE8F0"/>
<path d="M289.312 203.547H253.711V210.78H289.312V203.547Z" fill="#CEE8F0"/>
<path d="M327.966 203.547H292.364V210.78H327.966V203.547Z" fill="#CEE8F0"/>
<path d="M576.095 161.26V375.479C576.095 378.357 574.793 380.926 572.75 382.645C571.126 384.007 569.023 384.832 566.742 384.832H200.824C198.543 384.832 196.441 384.007 194.816 382.645C192.774 380.926 191.472 378.357 191.472 375.479V161.26C191.472 158.489 192.69 155.992 194.613 154.273L356.441 286.645L371.539 298.028C378.79 303.487 388.776 303.487 396.026 298.028L411.124 286.645L572.953 154.273C574.877 155.992 576.095 158.488 576.095 161.26Z" fill="url(#paint0_linear_4980_300)"/>
<path d="M572.751 382.646C571.126 384.007 569.024 384.832 566.743 384.832H200.825C198.543 384.832 196.441 384.007 194.816 382.646L376.109 263.282C380.766 260.216 386.801 260.216 391.459 263.282L572.751 382.646Z" fill="url(#paint1_linear_4980_300)"/>
<path d="M596.217 185.651C608.744 169.943 606.166 147.054 590.458 134.526C574.75 121.999 551.861 124.577 539.333 140.285C526.806 155.993 529.384 178.883 545.092 191.41C560.8 203.937 583.69 201.359 596.217 185.651Z" fill="#5584FF"/>
<path d="M575.215 145.723V180.188H567.239V152.125H560.347V145.725H575.215V145.723Z" fill="white"/>
<path d="M227.629 63.7182C227.629 57.1025 222.265 51.7385 215.649 51.7385C222.265 51.7385 227.629 46.3746 227.629 39.7588C227.629 46.3746 232.993 51.7385 239.609 51.7385C232.993 51.7385 227.629 57.1025 227.629 63.7182Z" fill="white"/>
<path d="M216.778 46.0975C216.778 42.7205 214.041 39.9836 210.664 39.9836C214.041 39.9836 216.778 37.2467 216.778 33.8696C216.778 37.2467 219.515 39.9836 222.892 39.9836C219.515 39.9836 216.778 42.7205 216.778 46.0975Z" fill="white"/>
<path d="M634.615 175.608C634.615 168.992 629.252 163.628 622.636 163.628C629.252 163.628 634.615 158.264 634.615 151.649C634.615 158.264 639.979 163.628 646.595 163.628C639.979 163.628 634.615 168.992 634.615 175.608Z" fill="white"/>
<path d="M649.304 157.422C649.304 153.422 646.061 150.179 642.061 150.179C646.061 150.179 649.304 146.936 649.304 142.935C649.304 146.936 652.547 150.179 656.548 150.179C652.547 150.179 649.304 153.422 649.304 157.422Z" fill="white"/>
<path d="M85.4465 269.867C85.4465 263.25 80.0826 257.887 73.4668 257.887C80.0826 257.887 85.4465 252.523 85.4465 245.908C85.4465 252.525 90.8105 257.887 97.4262 257.887C90.8091 257.887 85.4465 263.251 85.4465 269.867Z" fill="white"/>
<path d="M72.0555 251.173C72.0555 247.109 68.7612 243.816 64.6992 243.816C68.7625 243.816 72.0555 240.522 72.0555 236.46C72.0555 240.524 75.3498 243.816 79.4118 243.816C75.3485 243.816 72.0555 247.111 72.0555 251.173Z" fill="white"/>
<path d="M569.063 92.4259C569.063 85.8101 563.699 80.4461 557.083 80.4461C563.7 80.4461 569.063 75.0822 569.063 68.4664C569.063 75.0836 574.427 80.4461 581.042 80.4461C574.427 80.4461 569.063 85.8088 569.063 92.4259Z" fill="white"/>
<path d="M204.892 368.186C204.892 368.186 204.037 368.267 202.627 368.362C198.64 368.674 190.244 369.216 184.548 368.999C182.717 368.932 181.171 368.782 180.14 368.525C174.715 367.168 161.831 223.406 161.831 223.406L193.364 217.642C193.364 217.642 200.145 229.509 200.484 245.784C200.823 262.059 204.892 368.186 204.892 368.186Z" fill="#EBEBEB"/>
<path d="M190.762 301.274C192.256 300.496 193.476 299.203 194.166 297.667" stroke="#0E293A" stroke-width="0.678123" stroke-miterlimit="10" stroke-linecap="round" stroke-linejoin="round"/>
<path d="M177.944 295.464C178.785 303.086 168.098 370.383 168.098 370.383C167.162 370.41 166.05 370.355 164.815 370.247C159.16 369.813 151.036 368.267 147.076 367.48C145.611 367.182 144.716 366.992 144.716 366.992L149.626 303.601C149.626 303.601 132.157 239.179 131.479 227.651C130.801 216.123 137.08 207.809 137.08 207.809L190.313 205.951L193.866 220.517L167.257 229.686C167.257 229.686 177.09 287.828 177.944 295.464Z" fill="white"/>
<path d="M167.711 303.995C169.052 303.805 170.303 303.049 171.097 301.952" stroke="#0E293A" stroke-width="0.678123" stroke-miterlimit="10" stroke-linecap="round" stroke-linejoin="round"/>
<path d="M167.711 230.527C167.711 230.527 177.317 290.54 177.94 295.457C178.561 300.373 173.814 334.279 173.814 334.279" stroke="#0E293A" stroke-width="0.678123" stroke-miterlimit="10" stroke-linecap="round" stroke-linejoin="round"/>
<path d="M136.063 219.224C136.063 219.224 134.706 230.978 137.192 239.567C139.678 248.157 152.789 305.119 152.789 305.119L148.72 366.376" stroke="#0E293A" stroke-width="0.678123" stroke-miterlimit="10" stroke-linecap="round" stroke-linejoin="round"/>
<path d="M185.72 384.093C185.462 384.418 185.056 384.594 184.649 384.594H148.83C147.487 384.594 146.335 383.604 146.145 382.275C145.914 380.675 145.779 376.986 146.769 373.636C146.809 372.795 146.918 370.652 147.081 367.479C151.041 368.265 159.165 369.811 164.82 370.245L164.129 374.382L164.332 374.45C164.332 374.45 175.575 382.207 184.581 381.041C185.083 380.973 185.598 381.149 185.896 381.556C186.303 382.112 186.588 382.994 185.72 384.093Z" fill="#D48F65"/>
<path d="M185.145 384.644C185.664 384.637 186.08 384.231 186.111 383.713C186.176 382.649 186.259 381.424 185.617 380.8C184.513 379.729 183.07 379.063 181.759 378.302C180.177 377.384 178.547 376.559 176.826 375.941C174.314 375.04 171.437 374.118 168.739 374.515C169.295 373.602 169.855 372.678 170.165 371.656C170.476 370.634 170.515 369.488 170.042 368.53C169.449 367.333 168.154 366.606 166.925 366.184C165.969 365.856 164.948 365.706 163.941 365.804C160.29 366.153 159.329 369.044 158.249 371.607C157.517 373.347 156.505 375.177 154.741 375.848C152.597 376.662 150.203 375.428 148.537 373.851C148.537 373.851 146.579 372.679 145.731 373.78C144.884 374.881 144.629 383.529 146.156 384.376C147.538 385.144 179.264 384.728 185.145 384.644Z" fill="#F16B5F"/>
<path d="M225.456 384.093C225.253 384.418 224.873 384.594 224.466 384.594H188.634C187.291 384.594 186.017 383.604 185.637 382.275C185.149 380.58 184.416 376.525 185.135 373.012L184.552 368.998C190.248 369.215 198.643 368.672 202.631 368.36C202.685 372.239 202.712 374.45 202.712 374.45C202.712 374.45 215.04 382.208 223.883 381.041C224.385 380.973 224.927 381.15 225.28 381.557C225.755 382.113 226.175 382.994 225.456 384.093Z" fill="#D48F65"/>
<path d="M224.39 384.643C224.909 384.637 225.324 384.231 225.355 383.713C225.42 382.648 225.503 381.424 224.862 380.8C223.758 379.728 222.315 379.062 221.003 378.302C219.422 377.383 217.791 376.559 216.07 375.94C213.559 375.04 210.682 374.118 207.983 374.515C208.539 373.602 209.099 372.677 209.41 371.656C209.72 370.633 209.76 369.487 209.286 368.53C208.694 367.332 207.399 366.605 206.17 366.184C205.214 365.855 204.192 365.706 203.186 365.804C199.535 366.152 198.573 369.044 197.494 371.607C196.761 373.347 195.75 375.177 193.985 375.848C191.841 376.662 189.447 375.428 187.782 373.85C187.782 373.85 185.822 372.679 184.974 373.78C184.127 374.881 183.872 383.529 185.399 384.376C186.782 385.144 218.509 384.728 224.39 384.643Z" fill="#F16B5F"/>
<path d="M278.385 137.489C277.784 137.352 276.466 137.399 273.625 138.506C273.625 138.506 278.893 134.729 279.085 133.562C279.278 132.396 271.904 136.231 271.904 136.231C271.904 136.231 277.375 131.344 277.124 130.291C276.873 129.239 270.048 133.903 270.048 133.903C270.048 133.903 275.397 128.536 274.9 128.163C273.659 127.234 265.944 134.563 265.266 133.657C264.666 132.854 265.73 130.438 266.484 129.301C266.643 129.062 266.57 128.757 266.309 128.63C265.798 128.377 264.921 128.221 264.048 129.362C262.84 130.945 260.439 134.219 259.341 139.046C257.159 140.287 253.797 142.195 249.64 144.543C251.993 148.306 254.344 152.074 256.544 155.935C260.407 151.897 264.048 147.597 267.322 142.992L267.238 142.903C271.014 141.774 276.412 139.927 278.535 138.062C278.754 137.871 278.67 137.554 278.385 137.489Z" fill="#D48F65"/>
<path d="M194.047 165.257C194.047 165.257 216.594 178.989 222.019 179.328C227.444 179.667 262.707 154.577 268.132 147.626L258.299 137.963L224.054 158.137L196.59 142.71L194.047 165.257Z" fill="#E2EDF0"/>
<path d="M205.741 147.848C205.049 151.971 198.756 164.109 197.17 167.12C196.437 166.686 195.813 166.32 195.312 166.008C196.966 162.848 203.191 150.818 203.829 146.776L205.741 147.848Z" fill="#0E293A"/>
<path d="M258.3 137.962L219.986 160.51" stroke="#0E293A" stroke-width="0.678123" stroke-miterlimit="10" stroke-linecap="round" stroke-linejoin="round"/>
<path d="M220.327 157.881L224.057 158.136" stroke="#0E293A" stroke-width="0.678123" stroke-miterlimit="10" stroke-linecap="round" stroke-linejoin="round"/>
<path d="M257.284 140.335L265.677 148.726" stroke="#0E293A" stroke-width="0.678123" stroke-miterlimit="10" stroke-linecap="round" stroke-linejoin="round"/>
<path d="M220.836 175.823C221.514 175.899 222.192 175.974 222.87 176.05" stroke="#0E293A" stroke-width="0.678123" stroke-miterlimit="10" stroke-linecap="round" stroke-linejoin="round"/>
<path d="M170.823 144.404C170.823 144.404 180.995 160.34 194.896 166.782C194.896 166.782 204.051 149.659 203.881 146.099C203.881 146.099 183.368 131.689 179.638 132.028C175.909 132.367 169.805 135.08 170.823 144.404Z" fill="#F16B5F"/>
<path d="M153.365 127.396C152.914 127.604 152.419 127.784 151.903 127.95C155.546 130.255 159.075 132.744 162.939 135.092C164.85 136.254 166.783 137.377 168.713 138.503C169.865 134.5 172.258 131.088 175.455 128.603C175.205 128.359 174.97 128.093 174.741 127.815C174.501 126.949 173.946 124.841 173.53 122.458C173.16 120.325 172.898 117.984 173.084 116.144V116.135C173.168 115.227 173.36 114.441 173.708 113.864L153.068 102.258C153.083 102.327 153.091 102.389 153.106 102.459C153.433 104.374 155.923 119.423 153.365 127.396Z" fill="#D48F65"/>
<path d="M173.53 122.458C162.31 123.876 156.625 110.476 156.418 109.975C158.49 113.264 161.493 114.927 164.428 115.721C168.04 116.707 171.544 116.376 173.014 116.16C173.037 116.152 173.06 116.152 173.084 116.145C172.898 117.983 173.159 120.325 173.53 122.458Z" fill="#0E293A"/>
<path d="M134.48 209.165C134.48 209.165 132.558 215.946 131.994 217.641C131.43 219.337 162.238 223.831 168.613 224.649C175.774 225.567 189.647 223.427 194.602 222.592C195.522 222.437 196.036 221.451 195.645 220.605L192.348 213.46L134.48 209.165Z" fill="#E2EDF0"/>
<path d="M149.456 128.354L153.525 126.885C153.525 126.885 161.249 133.752 166.522 133.385C171.381 133.046 174.716 127.564 174.716 127.564L175.394 128.015L177.937 131.349C177.937 131.349 170.986 140.786 164.036 139.317C157.085 137.848 149.456 128.354 149.456 128.354Z" fill="#E2EDF0"/>
<path d="M195.06 219.337C190.666 219.296 147.849 218.862 133.025 214.21C133.351 213.112 133.676 211.972 133.948 211.05C147.686 215.485 187.641 216 193.541 216.041L195.06 219.337Z" fill="#0E293A"/>
<path d="M139.565 133.893C139.565 133.893 141.996 128.51 152.21 127.196C152.21 127.196 158.214 137.509 166.69 137.17C175.167 136.831 176.028 128.467 176.028 128.467C176.028 128.467 187.147 136.717 188.164 137.961C189.181 139.204 188.276 154.801 186.92 160.904C185.564 167.007 186.581 192.776 186.581 192.776C186.581 192.776 193.136 215.267 194.267 217.64C194.267 217.64 148.267 217.414 133.688 212.554C133.688 212.554 138.886 192.323 141.259 185.768C143.633 179.214 135.722 148.698 136.4 143.047C137.079 137.396 139.565 133.893 139.565 133.893Z" fill="#F16B5F"/>
<path d="M151.827 130.361C151.827 130.361 167.933 150.026 176.495 131.463" stroke="#0E293A" stroke-width="0.678123" stroke-miterlimit="10" stroke-linecap="round" stroke-linejoin="round"/>
<path d="M172.667 206.524C178.244 205.487 183.795 204.098 189.223 202.233L189.209 202.111L188.219 194.719C188.219 194.719 188.192 194.72 188.124 194.706C187.385 194.629 182.473 194.115 175.18 193.329C174.266 197.724 173.426 202.115 172.667 206.524Z" fill="#D48F65"/>
<path d="M130.816 167.46C130.816 167.46 127.256 197.806 132.85 204.249C138.445 210.691 188.117 206.283 188.117 206.283L178.623 191.534L150.651 189.838L151.329 167.291L130.816 167.46Z" fill="#E2EDF0"/>
<path d="M151.232 170.444L151.178 172.479L130.481 170.743C130.549 169.929 130.617 169.251 130.671 168.722L151.232 170.444Z" fill="#0E293A"/>
<path d="M147.427 186.193L150.648 189.838L143.274 189.753" stroke="#0E293A" stroke-width="0.678123" stroke-miterlimit="10" stroke-linecap="round" stroke-linejoin="round"/>
<path d="M180.824 197.042L186.165 205.689" stroke="#0E293A" stroke-width="0.678123" stroke-miterlimit="10" stroke-linecap="round" stroke-linejoin="round"/>
<path d="M132.657 201.146C132.872 201.95 133.489 202.636 134.266 202.935" stroke="#0E293A" stroke-width="0.678123" stroke-miterlimit="10" stroke-linecap="round" stroke-linejoin="round"/>
<path d="M129.798 168.647C129.798 168.647 129.459 132.537 142.852 130.163C156.244 127.79 153.362 150.677 152.006 170.512L129.798 168.647Z" fill="#F16B5F"/>
<path d="M206.699 191.282H153.767L149.766 154.778C149.647 153.689 150.5 152.737 151.596 152.737H200.825C201.763 152.737 202.553 153.444 202.654 154.377L206.699 191.282Z" fill="#0E293A"/>
<path d="M208.188 191.282H155.256L151.255 154.778C151.136 153.689 151.989 152.737 153.085 152.737H202.313C203.251 152.737 204.04 153.444 204.142 154.377L208.188 191.282Z" fill="#1D5578"/>
<path d="M207.819 187.888L204.294 155.722H151.362L154.887 187.888H207.819Z" fill="white"/>
<path d="M231.241 196.166H154.362L153.71 191.281H230.589L231.241 196.166Z" fill="#0E293A"/>
<path d="M194.059 164.46L195.451 181.22C195.47 181.446 195.384 181.646 195.235 181.781C195.117 181.888 194.958 181.951 194.779 181.951H166.149C165.97 181.951 165.8 181.886 165.665 181.781C165.494 181.646 165.374 181.446 165.357 181.22L163.965 164.46C163.948 164.243 164.026 164.048 164.166 163.913L177.688 174.271L178.944 175.162C179.546 175.589 180.327 175.589 180.86 175.162L181.967 174.271L193.769 163.913C193.929 164.048 194.041 164.243 194.059 164.46Z" fill="#FBAC4D"/>
<path d="M195.235 181.782C195.117 181.889 194.959 181.953 194.78 181.953H166.149C165.97 181.953 165.801 181.887 165.665 181.782L179.074 172.443C179.419 172.203 179.891 172.203 180.276 172.443L195.235 181.782Z" fill="#FBBC71"/>
<path d="M164.088 164.004C164.198 163.844 164.323 163.833 164.502 163.833H193.436C193.615 163.833 193.803 163.881 193.882 164.031L180.61 176.441C180.265 176.681 179.793 176.681 179.408 176.441L164.088 164.004Z" fill="#D68C34"/>
<path d="M197.387 165.837C198.798 164.365 198.647 161.93 197.048 160.397C195.45 158.863 193.01 158.813 191.598 160.285C190.187 161.756 190.339 164.192 191.937 165.725C193.536 167.258 195.976 167.308 197.387 165.837Z" fill="#F16B5F"/>
<path d="M195.131 161.241L195.434 164.887H194.59L194.343 161.919H193.614L193.557 161.242L195.131 161.241Z" fill="white"/>
<path d="M184.645 196.237C184.645 196.237 188.544 188.82 191.553 187.633C194.563 186.446 190.07 192.719 191.384 192.974C192.698 193.229 199.295 189.964 201.287 190.345C203.279 190.726 197.811 193.482 197.811 193.482C197.811 193.482 199.478 193.227 199.478 194.966C199.478 194.966 200.957 195.471 200.511 197.193C200.511 197.193 201.556 198.271 200.538 199.586C199.521 200.9 188.841 202.849 186.848 202.595C184.856 202.34 184.645 196.237 184.645 196.237Z" fill="#D48F65"/>
<path d="M181.022 79.5935C178.327 72.6631 165.619 69.9669 156.763 77.669C152.647 81.2481 151.781 87.7337 152.027 93.6551C151.813 93.5506 151.62 93.4692 151.495 93.4381C149.693 92.9891 147.881 94.3481 147.341 96.042C146.911 97.3915 147.201 98.9173 147.973 100.107C148.614 101.095 149.655 102.016 150.766 102.439C151.045 102.545 152.29 102.751 153.169 102.675C154.015 106.571 156.001 110.169 159.07 112.718C162.941 115.934 167.895 117.224 172.828 116.2C176.662 115.404 182.338 112.946 183.745 108.967C184.112 107.931 184.145 106.812 184.159 105.713C184.261 97.3264 184.103 87.518 181.022 79.5935Z" fill="#D48F65"/>
<path d="M178.847 95.8312C179.475 95.8312 179.984 94.7886 179.984 93.5025C179.984 92.2164 179.475 91.1738 178.847 91.1738C178.22 91.1738 177.711 92.2164 177.711 93.5025C177.711 94.7886 178.22 95.8312 178.847 95.8312Z" fill="#0E293A"/>
<path d="M170.132 93.5025C170.132 94.7882 169.623 95.8298 168.994 95.8298C168.366 95.8298 167.857 94.7882 167.857 93.5025C167.857 92.2168 168.366 91.1738 168.994 91.1738C169.623 91.1738 170.132 92.2168 170.132 93.5025Z" fill="#0E293A"/>
<path d="M178.195 100.546C177.8 101.314 177.201 101.977 176.481 102.495C175.762 103.014 174.863 103.347 173.935 103.34C173.014 103.317 172.11 103.004 171.402 102.465C171.03 102.222 170.74 101.882 170.42 101.592C170.153 101.247 169.891 100.903 169.656 100.546C170.008 100.802 170.328 101.076 170.65 101.342C171.008 101.559 171.329 101.826 171.691 102.009C172.397 102.414 173.169 102.636 173.939 102.648C174.714 102.667 175.484 102.422 176.197 102.039C176.905 101.646 177.574 101.137 178.195 100.546Z" fill="#0E293A"/>
<path d="M175.124 104.673C174.799 104.962 174.355 105.065 173.926 105.079C173.496 105.065 173.058 104.948 172.729 104.673C173.149 104.739 173.531 104.822 173.927 104.807C174.322 104.822 174.709 104.754 175.124 104.673Z" fill="#0E293A"/>
<path d="M171.082 85.4279C170.551 84.9572 169.951 84.804 169.32 84.7755C168.695 84.7606 168.052 84.8352 167.443 85.0413C166.829 85.2285 166.263 85.5743 165.791 85.988C165.297 86.3867 164.951 86.9143 164.663 87.4338C164.516 87.6969 164.611 88.0278 164.874 88.1743C165.084 88.2909 165.338 88.2543 165.506 88.0997L165.552 88.0576C165.923 87.7172 166.278 87.3985 166.675 87.1652C167.056 86.9075 167.486 86.7665 167.915 86.6566C168.348 86.5563 168.798 86.502 169.258 86.5264C169.712 86.5414 170.195 86.5658 170.694 86.4437L170.838 86.4084C171.144 86.3338 171.331 86.0246 171.257 85.7195C171.23 85.6028 171.166 85.5025 171.082 85.4279Z" fill="#0E293A"/>
<path d="M176.764 85.4279C177.295 84.9572 177.895 84.804 178.526 84.7755C179.151 84.7606 179.794 84.8352 180.403 85.0413C181.017 85.2285 181.583 85.5743 182.055 85.988C182.549 86.3867 182.894 86.9143 183.183 87.4338C183.33 87.6969 183.235 88.0278 182.972 88.1743C182.762 88.2909 182.508 88.2543 182.34 88.0997L182.294 88.0576C181.923 87.7172 181.568 87.3985 181.171 87.1652C180.79 86.9075 180.36 86.7665 179.931 86.6566C179.498 86.5563 179.048 86.502 178.588 86.5264C178.135 86.5414 177.651 86.5658 177.152 86.4437L177.008 86.4084C176.703 86.3338 176.516 86.0246 176.591 85.7195C176.618 85.6028 176.68 85.5025 176.764 85.4279Z" fill="#0E293A"/>
<path d="M176.219 89.728C176.42 90.6055 176.568 91.4762 176.73 92.3388C176.898 93.1987 177.057 94.0585 177.301 94.8736C177.358 95.0784 177.422 95.2791 177.494 95.4744C177.554 95.6331 177.696 95.9396 177.692 96.2258C177.722 96.8076 177.35 97.3773 176.875 97.6065C176.391 97.8777 175.832 97.8357 175.392 97.6851C174.944 97.5237 174.554 97.281 174.216 96.9826C175.032 97.2891 175.986 97.5292 176.561 97.0952C176.85 96.8755 177.006 96.5839 176.964 96.2651C176.949 96.1024 176.897 95.9979 176.793 95.7484C176.705 95.53 176.627 95.3117 176.562 95.0906C176.313 94.2036 176.185 93.3085 176.135 92.412C176.085 91.5169 176.102 90.6204 176.219 89.728Z" fill="#0E293A"/>
<path d="M148.669 97.083C148.656 96.5487 148.803 95.956 149.275 95.5423C149.777 95.1314 150.49 95.1694 151.031 95.3728C151.606 95.5722 152.078 95.9655 152.45 96.4076C152.83 96.8538 153.106 97.338 153.331 97.8941C153.411 98.0921 153.317 98.3186 153.117 98.3999C152.967 98.461 152.801 98.4216 152.695 98.3131L152.67 98.2874C152.291 97.9036 151.815 97.4926 151.366 97.3651C151.141 97.3068 150.974 97.3136 150.818 97.4248C150.657 97.5387 150.533 97.7801 150.428 98.0283C150.23 98.5383 150.11 99.1364 150.546 99.3724C151.003 99.6314 151.671 99.569 152.268 99.4904C151.704 99.7372 151.081 99.9461 150.375 99.744C150.015 99.6273 149.731 99.2191 149.706 98.8516C149.672 98.484 149.724 98.149 149.816 97.8208C149.914 97.4967 150.048 97.1536 150.367 96.8701C150.689 96.5799 151.197 96.5121 151.557 96.6246C152.294 96.847 152.792 97.2715 153.254 97.7666L152.592 98.1585C152.236 97.2675 151.651 96.3398 150.805 95.9221C150.382 95.72 149.881 95.6169 149.481 95.8421C149.063 96.0577 148.811 96.5717 148.669 97.083Z" fill="#0E293A"/>
<path d="M163.079 83.9374C163.079 83.9374 160.374 92.3719 158.671 94.5609C158.146 95.235 157.77 96.1084 157.503 96.9737C157.218 97.8973 155.948 98.0112 155.474 97.169C154.381 95.2241 152.623 93.1775 150.132 93.4217C150.132 93.4217 149.177 80.0382 157.202 76.8171L163.079 83.9374Z" fill="#1E587D"/>
<path d="M183.26 82.363C179.258 80.9498 174.884 80.8223 170.819 81.9995C168.429 82.6925 166.154 83.8209 163.74 84.4028C161.325 84.9846 158.32 85.4756 156.748 83.3897C155.391 81.5886 154.799 79.1256 155.172 76.8282C155.545 74.5307 156.878 72.4407 158.72 71.2621C160.338 70.2273 162.24 69.9018 164.042 69.3417C165.846 68.7815 167.701 67.862 168.656 66.0989C168.71 67.7494 168.208 69.3932 167.244 70.6654C168.903 69.6984 170.909 69.522 172.786 69.636C174.663 69.7499 176.544 70.0646 178.414 69.8598C180.284 69.655 182.206 68.8358 183.289 67.1567C183.388 69.4095 183.164 71.9674 182.204 73.9638C183.546 76.664 183.699 79.3263 183.26 82.363Z" fill="#0E293A"/>
<path d="M780.698 384.831H1.38814C0.616439 384.831 -0.00878906 384.224 -0.00878906 383.474C-0.00878906 382.724 0.616439 382.118 1.38814 382.118H780.697C781.468 382.118 782.094 382.724 782.094 383.474C782.094 384.224 781.47 384.831 780.698 384.831Z" fill="#048FA6"/>
<defs>
<linearGradient id="paint0_linear_4980_300" x1="383.783" y1="384.832" x2="383.783" y2="154.273" gradientUnits="userSpaceOnUse">
<stop stop-color="#FF881B"/>
<stop offset="1" stop-color="#FFB876"/>
</linearGradient>
<linearGradient id="paint1_linear_4980_300" x1="383.784" y1="384.832" x2="383.784" y2="260.982" gradientUnits="userSpaceOnUse">
<stop stop-color="#F8861D"/>
<stop offset="1" stop-color="#FFC188"/>
</linearGradient>
</defs>
</svg>
