<svg width="127" height="37" viewBox="0 0 127 37" fill="none" xmlns="http://www.w3.org/2000/svg">
<path d="M25.6367 4.12912C19.9649 4.7255 8.50395 6.03754 8.03456 6.51465C3.81003 11.7627 7.44782 26.1953 9.79477 32.7556L23.8765 33.352C27.0058 28.9785 33.3817 18.5616 33.8511 11.8821C34.3205 5.20261 28.5704 3.93033 25.6367 4.12912Z" fill="white"/>
<path d="M17.899 12.5965C19.0903 12.5404 20.2753 12.3905 21.4431 12.1483L21.9977 10.3291C20.5969 10.1388 19.1808 10.0874 17.7699 10.1756C14.0043 10.3744 11.8259 11.2535 11.1875 11.7453C11.8729 12.1517 14.1316 12.8023 17.899 12.5965Z" fill="#2763FE"/>
<path d="M28.1749 0.993591H9.59624C8.46659 0.993591 7.34804 1.21609 6.30438 1.64839C5.26072 2.08069 4.3124 2.71431 3.51361 3.51309C2.71483 4.31187 2.08122 5.26017 1.64892 6.30383C1.21662 7.34749 0.994141 8.46606 0.994141 9.59571V28.1744C0.994141 29.304 1.21662 30.4226 1.64892 31.4662C2.08122 32.5099 2.71483 33.4582 3.51361 34.257C4.3124 35.0558 5.26072 35.6894 6.30438 36.1217C7.34804 36.554 8.46659 36.7765 9.59624 36.7765H28.1749C29.3045 36.7765 30.4231 36.554 31.4668 36.1217C32.5105 35.6894 33.4587 35.0558 34.2575 34.257C35.0563 33.4582 35.6899 32.5099 36.1222 31.4662C36.5545 30.4226 36.777 29.304 36.777 28.1744V9.59571C36.777 8.46606 36.5545 7.34749 36.1222 6.30383C35.6899 5.26017 35.0563 4.31187 34.2575 3.51309C33.4587 2.71431 32.5105 2.08069 31.4668 1.64839C30.4231 1.21609 29.3045 0.993591 28.1749 0.993591ZM26.2215 22.0036C25.7749 23.5383 24.9011 24.9145 23.7019 25.9713C22.5027 27.0281 21.0277 27.722 19.4489 27.972L18.2542 31.8842H15.3885L16.6199 27.9598C14.7677 27.646 13.0721 26.7261 11.7993 25.3444C10.5265 23.9626 9.74852 22.1974 9.58751 20.3257L8.88985 13.0962L8.79221 11.98C8.77373 11.7785 8.78311 11.5754 8.8201 11.3765C8.83828 11.2814 8.86452 11.188 8.89858 11.0974C8.91428 11.0556 8.93347 11.0155 8.95091 10.9753C9.02358 10.8206 9.11308 10.6744 9.21777 10.5393L9.27884 10.4608C10.6358 8.837 14.6369 8.07481 17.6507 7.91435C19.325 7.81161 21.0054 7.88822 22.6634 8.14285L23.2338 6.27834H26.047L25.2273 9.03934L21.0047 22.9193C20.9401 23.1346 20.8208 23.3295 20.6585 23.485C20.4962 23.6406 20.2964 23.7515 20.0786 23.807C19.601 23.925 19.1106 23.9836 18.6187 23.9814C18.4443 23.9814 18.2699 23.9814 18.0728 23.957L17.8618 23.9396L20.6995 14.5822C19.8106 14.7192 18.9152 14.8112 18.017 14.8578C17.5705 14.8805 17.1048 14.8927 16.6356 14.8927C15.5368 14.8927 13.484 14.8212 11.752 14.3572L12.0921 18.1944C12.1078 18.2781 12.1253 18.4228 12.1567 18.6949C12.1741 18.8397 12.195 19.0106 12.2055 19.1065L12.3433 20.5612C12.6041 22.039 13.4253 23.3592 14.6358 24.2463C15.8462 25.1334 17.3524 25.519 18.8402 25.3227C18.9518 25.307 19.074 25.2861 19.2117 25.2582L19.2745 25.2459C19.3914 25.2215 19.5065 25.1936 19.6233 25.1622L19.6792 25.1448L19.7559 25.1221C19.8152 25.1064 19.871 25.0872 19.9303 25.0663L19.9966 25.0436L20.0594 25.021L20.1937 24.9721C21.0146 24.6518 21.7509 24.1472 22.3461 23.4974C22.9412 22.8476 23.3791 22.0698 23.6262 21.2239L25.1959 15.9793L27.9866 16.0735L26.2215 22.0036ZM28.9772 12.8189L28.4174 14.6851C28.3861 14.7907 28.3214 14.8833 28.233 14.949C28.1447 15.0147 28.0374 15.0501 27.9272 15.0497L25.4994 14.9851L26.2999 12.3218H28.6074C28.6677 12.3217 28.7271 12.3357 28.781 12.3627C28.8348 12.3897 28.8816 12.4289 28.9176 12.4772C28.9535 12.5255 28.9776 12.5816 28.988 12.641C28.9984 12.7003 28.9947 12.7612 28.9772 12.8189Z" fill="#2763FE"/>
<path d="M49.1314 10.1248V20.1324C49.1314 22.5432 49.9265 23.9327 52.0506 23.9327C54.1747 23.9327 54.9718 22.5432 54.9718 20.1324V10.1248H59.3391V19.8649C59.3391 24.6865 57.142 27.6574 52.0276 27.6574C46.8421 27.6574 44.7295 24.8319 44.7295 19.987V10.1248H49.1314Z" fill="#2763FE"/>
<path d="M61.7764 12.4871C61.7764 10.9038 62.8384 10.1248 64.3826 10.1248C65.9267 10.1248 67.0137 10.9 67.0137 12.4871C67.0137 14.0743 65.9286 14.8243 64.3826 14.8243C62.8365 14.8243 61.7764 14.0704 61.7764 12.4871Z" fill="#2763FE"/>
<path d="M66.5075 16.3196H62.2842V27.1701H66.5075V16.3196Z" fill="#2763FE"/>
<path d="M87.3503 21.9343C87.3503 25.3683 84.9861 27.1667 81.1239 27.1667H73.6338V10.1129H81.7903C85.0245 10.1129 86.8587 11.8415 86.8587 14.6186C86.8587 16.2736 86.0904 17.32 85.1302 17.9538C86.4573 18.6223 87.3503 19.8646 87.3503 21.9343ZM78.0357 13.2407V16.9422H80.5689C82.1629 16.9422 82.814 16.2116 82.814 15.0914C82.814 13.9713 82.282 13.2407 80.5458 13.2407H78.0357ZM83.056 21.9614C83.056 20.6708 82.2878 20.0622 80.7629 20.0622H78.0357V24.0544H80.5689C82.186 24.0525 83.056 23.3471 83.056 21.9614Z" fill="#2763FE"/>
<path d="M100.841 19.693V27.1696H97.2922L97.1001 26.2917C96.159 27.0959 94.855 27.5824 93.1899 27.5824C90.5837 27.5824 89.0146 26.032 89.0146 23.6135C89.0146 21.0321 90.8737 19.4992 93.841 19.4992C94.7684 19.4757 95.6946 19.582 96.5931 19.8151V19.3519C96.5931 18.038 95.894 17.5264 93.914 17.5264C92.6126 17.5174 91.3206 17.7486 90.1017 18.2085V14.7009C91.6566 14.2179 93.2761 13.98 94.903 13.9955C99.2723 13.9955 100.841 15.6505 100.841 19.693ZM94.6149 24.5631C95.3439 24.5915 96.0546 24.329 96.5931 23.8325V22.3228C96.0393 22.1883 95.4726 22.1149 94.903 22.1038C93.8179 22.1038 93.1745 22.5418 93.1745 23.3712C93.1745 24.2007 93.7929 24.5631 94.6149 24.5631Z" fill="#2763FE"/>
<path d="M111.943 14.1409V18.2784C111.543 18.1638 111.127 18.1147 110.711 18.1331C109.793 18.1331 108.731 18.4974 107.888 19.79V27.1678H103.663V14.3774H107.185L107.475 15.6196C108.436 14.4568 109.502 13.9878 110.806 13.9878C111.19 13.9845 111.573 14.036 111.943 14.1409Z" fill="#2763FE"/>
<path d="M126.302 19.3295V27.1704H122.056V19.6454C122.056 18.1609 121.379 17.5756 120.244 17.5756C119.447 17.5756 118.773 17.8683 118.097 18.4516V27.1723H113.872V14.3819H117.394L117.611 15.3315C118.698 14.3819 119.977 13.9924 121.426 13.9924C124.758 13.9962 126.302 15.8218 126.302 19.3295Z" fill="#2763FE"/>
</svg>
