<svg width="399" height="406" viewBox="0 0 399 406" fill="none" xmlns="http://www.w3.org/2000/svg">
<path d="M122.076 113.526L116.008 119.639L112.644 116.296L118.734 110.184L122.076 113.526Z" fill="#FF1B21"/>
<path d="M152.703 100.971L147.228 104.446L135.113 94.881L142.897 107.194L137.466 110.624L121.723 85.8001L128.671 81.4027C130.11 80.5084 131.707 79.8965 133.376 79.5997C134.951 79.2439 136.603 79.5035 137.993 80.3253C139.292 81.1013 140.392 82.1705 141.204 83.4475C142.1 84.7403 142.59 86.2717 142.611 87.845C142.503 89.5087 141.998 91.1223 141.138 92.5503L152.703 100.971ZM134.168 93.5397C135.905 92.4403 136.784 91.341 136.806 90.4175C136.807 89.3334 136.477 88.2747 135.861 87.3832C134.365 85.0086 132.628 84.4369 130.694 85.6682L129.616 86.3498L134.168 93.5397Z" fill="#FF1B21"/>
<path d="M169.065 94.2215L155.52 99.8502L144.219 72.6078L156.927 67.3308L159.126 72.5638L152.244 75.4222L154.553 80.941L160.445 78.5004L162.534 83.5356L156.642 85.9981L159.148 92.0007L166.866 88.7686L169.065 94.2215Z" fill="#FF1B21"/>
<path d="M181.444 82.0178C182.282 84.4234 182.243 87.048 181.334 89.4276C180.751 90.3967 179.963 91.2259 179.024 91.8566C178.086 92.4874 177.02 92.9041 175.903 93.0775C175.093 93.2978 174.257 93.4087 173.418 93.4073C172.368 93.3209 171.33 93.1293 170.318 92.8357L168.713 86.5253C169.002 86.5864 169.283 86.6824 169.548 86.8111C170.81 87.4494 172.244 87.6653 173.638 87.4268C175.287 87.031 175.837 85.6018 175.177 83.1612L170.252 63.5704L176.431 62.0093L181.444 82.0178Z" fill="#FF1B21"/>
<path d="M202.331 88.3505L187.731 89.8016L184.829 60.5144L198.505 59.1511L199.077 64.8019L191.667 65.5495L192.261 71.4861L198.615 70.8704L199.143 76.3013L192.789 76.939L193.426 83.4033L201.759 82.5678L202.331 88.3505Z" fill="#FF1B21"/>
<path d="M222.604 88.9442C220.858 89.5711 218.999 89.8185 217.151 89.6698C215.479 89.6015 213.842 89.1733 212.35 88.4144C210.859 87.6554 209.549 86.5837 208.51 85.2723C206.119 81.9212 205.09 77.7877 205.629 73.7069C205.616 69.5132 207.187 65.4691 210.027 62.3834C211.111 61.246 212.43 60.358 213.892 59.7809C215.353 59.2038 216.923 58.9514 218.492 59.0413C220.571 59.2359 222.586 59.8651 224.407 60.8882L224.033 67.0447C223.03 66.4137 221.978 65.8623 220.889 65.3957C220.371 65.2579 219.841 65.1696 219.306 65.1318C218.469 65.0906 217.633 65.2304 216.855 65.5415C216.077 65.8526 215.376 66.3279 214.798 66.9348C213.21 68.9115 212.383 71.3923 212.468 73.9268C212.047 76.4942 212.529 79.1281 213.831 81.3805C214.348 82.0656 215.011 82.6278 215.771 83.0269C216.531 83.426 217.37 83.6522 218.228 83.6892C219.963 83.6974 221.661 83.1925 223.11 82.238L222.604 88.9442Z" fill="#FF1B21"/>
<path d="M246.572 70.6725L241.009 69.3753L235.579 92.3961L229.4 90.945L234.809 67.9021L229.114 66.5609L230.434 60.9761L247.892 65.0657L246.572 70.6725Z" fill="#FF1B21"/>
<path d="M257.102 100.377L243.536 94.7925L254.772 67.594L267.48 72.849L265.282 78.082L258.4 75.2456L256.201 80.7865L262.094 83.2051L259.895 88.2622L254.002 85.7996L251.518 91.8242L259.257 95.0123L257.102 100.377Z" fill="#FF1B21"/>
<path d="M275.837 77.0048L281.752 80.7866C283.262 81.6599 284.566 82.8485 285.576 84.2714C286.585 85.6942 287.276 87.318 287.601 89.0319C288.066 92.9355 287.019 96.869 284.676 100.026C282.764 103.5 279.63 106.14 275.881 107.435C274.135 107.871 272.313 107.918 270.547 107.572C268.78 107.226 267.111 106.496 265.657 105.435L259.94 101.763L275.837 77.0048ZM278.388 84.9202L268.252 100.729L268.889 101.147C270.154 101.872 271.623 102.158 273.067 101.961C274.782 101.961 276.695 100.136 278.806 96.8374C280.028 95.1442 280.937 93.2451 281.488 91.2306C281.738 90.0439 281.591 88.808 281.07 87.7127C280.608 86.7369 279.885 85.9076 278.982 85.316L278.388 84.9202Z" fill="#FF1B21"/>
<path d="M297.032 121.442L291.029 115.263L294.437 111.965L300.44 118.144L297.032 121.442Z" fill="#FF1B21"/>
<path d="M112.491 296.505L106.687 290.085L110.226 286.941L115.965 293.361L112.491 296.505Z" fill="#FF1B21"/>
<path d="M135.862 325.199L130.563 321.505L134.653 306.642L126.364 318.603L121.131 314.975L137.907 290.789L144.701 295.494C146.089 296.468 147.276 297.699 148.197 299.122C149.116 300.451 149.515 302.07 149.319 303.673C149.109 305.173 148.551 306.604 147.692 307.851C146.841 309.179 145.617 310.227 144.174 310.863C142.59 311.398 140.904 311.556 139.248 311.325L135.862 325.199ZM135.511 305.234C137.204 306.4 138.501 306.818 139.424 306.466C140.423 306.04 141.266 305.318 141.843 304.399C143.448 302.2 143.316 300.287 141.425 298.968L140.37 298.242L135.511 305.234Z" fill="#FF1B21"/>
<path d="M156.292 334.94L142.945 328.849L155.06 302.091L167.571 307.807L165.219 312.974L158.447 309.874L155.962 315.327L161.789 317.966L159.59 322.935L153.785 320.296L151.103 326.211L158.71 329.685L156.292 334.94Z" fill="#FF1B21"/>
<path d="M177.046 332.059C176.575 334.552 175.245 336.801 173.286 338.414C172.292 338.979 171.185 339.317 170.045 339.405C168.905 339.492 167.759 339.326 166.69 338.92C165.873 338.703 165.089 338.378 164.36 337.952C163.495 337.36 162.692 336.682 161.963 335.929L163.7 329.663C163.919 329.856 164.111 330.078 164.272 330.322C165.061 331.494 166.199 332.387 167.526 332.873C169.153 333.335 170.318 332.345 170.978 329.927L176.409 310.468L182.543 312.183L177.046 332.059Z" fill="#FF1B21"/>
<path d="M197.736 343.866L183.158 342.151L186.588 312.93L200.242 314.535L199.583 320.164L192.195 319.306L191.491 325.243L197.846 325.991L197.208 331.422L190.854 330.674L190.106 337.138L198.417 338.106L197.736 343.866Z" fill="#FF1B21"/>
<path d="M222.648 342.657C220.986 343.468 219.175 343.924 217.327 343.999C215.654 344.124 213.973 343.884 212.401 343.295C210.83 342.707 209.405 341.784 208.225 340.591C205.507 337.579 204.023 333.653 204.069 329.597C203.523 325.457 204.56 321.264 206.971 317.856C207.908 316.583 209.112 315.53 210.498 314.77C211.884 314.011 213.42 313.563 214.997 313.458C217.085 313.405 219.161 313.795 221.087 314.601L221.417 320.758C220.356 320.245 219.252 319.826 218.119 319.505C217.585 319.448 217.047 319.448 216.514 319.505C215.686 319.541 214.877 319.757 214.14 320.137C213.404 320.516 212.758 321.051 212.248 321.703C210.899 323.857 210.368 326.425 210.753 328.937C210.613 331.525 211.392 334.079 212.952 336.149C213.546 336.771 214.269 337.255 215.071 337.567C215.873 337.878 216.733 338.01 217.591 337.952C219.316 337.762 220.945 337.065 222.275 335.951L222.648 342.657Z" fill="#FF1B21"/>
<path d="M240.814 314.997L235.251 316.294L240.66 339.381L234.481 340.854L229.073 317.789L223.378 319.131L222.059 313.546L239.517 309.434L240.814 314.997Z" fill="#FF1B21"/>
<path d="M266.513 329.861L252.991 335.556L241.535 308.467L254.2 303.102L256.399 308.335L249.605 311.281L251.935 316.778L257.806 314.316L260.005 319.329L254.002 321.813L256.531 327.816L264.226 324.562L266.513 329.861Z" fill="#FF1B21"/>
<path d="M257.608 301.519L263.479 297.605C264.879 296.571 266.487 295.853 268.191 295.5C269.895 295.147 271.656 295.168 273.351 295.56C277.119 296.701 280.305 299.243 282.256 302.662C284.657 305.801 285.816 309.715 285.51 313.656C285.211 315.43 284.524 317.117 283.498 318.596C282.472 320.074 281.132 321.308 279.574 322.209L273.901 325.991L257.608 301.519ZM265.898 302.354L276.298 317.987L276.935 317.569C278.113 316.706 278.972 315.477 279.376 314.073C279.948 312.446 279.134 310.006 276.979 306.752C275.907 304.959 274.53 303.367 272.912 302.046C271.922 301.349 270.736 300.987 269.526 301.013C268.444 301.048 267.394 301.383 266.491 301.98L265.898 302.354Z" fill="#FF1B21"/>
<path d="M304.201 290.547L298.374 296.879L294.878 293.691L300.705 287.337L304.201 290.547Z" fill="#FF1B21"/>
<path d="M44.1117 141.89C56.5203 109.084 78.623 80.8335 107.48 60.8964C136.336 40.9594 170.579 30.2806 205.654 30.2806C240.728 30.2806 274.971 40.9594 303.827 60.8964C332.684 80.8335 354.787 109.084 367.195 141.89H394.592C395.258 135.162 393.881 128.389 390.642 122.455C387.402 116.521 382.45 111.701 376.43 108.623C371.32 106.018 366.961 102.149 363.766 97.385C360.572 92.6208 358.649 87.119 358.18 81.4023C357.538 73.4526 354.089 65.9906 348.449 60.351C342.81 54.7114 335.348 51.2621 327.398 50.6199C321.666 50.1654 316.146 48.2492 311.365 45.0543C306.584 41.8594 302.702 37.4925 300.09 32.3703C296.493 25.1797 290.438 19.5171 283.023 16.4107C275.608 13.3042 267.324 12.9597 259.677 15.4399C254.207 17.214 248.373 17.5553 242.733 16.4313C237.094 15.3072 231.837 12.7553 227.465 9.01961C221.38 3.82686 213.642 0.974243 205.643 0.974243C197.643 0.974243 189.905 3.82686 183.82 9.01961C179.449 12.7572 174.192 15.3103 168.552 16.4344C162.912 17.5586 157.078 17.2162 151.608 15.4399C144.001 12.9649 135.759 13.2859 128.367 16.3452C120.975 19.4044 114.917 25.0011 111.283 32.1284C108.672 37.2519 104.791 41.62 100.01 44.8151C95.2284 48.0103 89.7077 49.9256 83.975 50.378C76.0253 51.0202 68.5633 54.4696 62.9237 60.1092C57.2842 65.7488 53.8348 73.2107 53.1926 81.1604C52.7381 86.8925 50.8219 92.4124 47.627 97.1932C44.4322 101.974 40.0651 105.856 34.943 108.469C28.9174 111.54 23.9597 116.359 20.7191 122.295C17.4785 128.23 16.106 135.007 16.7813 141.736L44.1117 141.89ZM205.654 49.5425C235.549 49.5812 264.784 58.3381 289.779 74.7405C314.773 91.1429 334.441 114.479 346.373 141.89H355.894C343.755 111.981 322.969 86.3737 296.195 68.3448C269.421 50.316 237.877 40.6855 205.599 40.6855C173.32 40.6855 141.776 50.316 115.002 68.3448C88.2279 86.3737 67.4419 111.981 55.3034 141.89H64.9119C76.8378 114.471 96.5028 91.1255 121.498 74.7149C146.492 58.3044 175.731 49.541 205.632 49.4985L205.654 49.5425ZM393.14 257.06C393.086 256.917 393.042 256.77 393.009 256.62H369.812C358.51 291.254 336.545 321.426 307.058 342.82C277.571 364.215 242.073 375.737 205.643 375.737C169.212 375.737 133.714 364.215 104.227 342.82C74.7404 321.426 52.7751 291.254 41.4732 256.62H18.2985L18.1666 257.06C15.6933 264.67 16.0175 272.913 19.0809 280.306C22.1443 287.698 27.7457 293.755 34.877 297.385C40.0005 299.996 44.3686 303.878 47.5637 308.659C50.7589 313.44 52.6742 318.961 53.1266 324.693C53.7731 332.642 57.2239 340.101 62.8626 345.74C68.5014 351.379 75.9609 354.829 83.909 355.476C89.6655 355.924 95.209 357.849 100.004 361.065C104.799 364.281 108.684 368.68 111.283 373.835C114.917 380.964 120.974 386.562 128.365 389.625C135.756 392.688 143.998 393.014 151.608 390.546C157.078 388.77 162.912 388.427 168.552 389.551C174.192 390.675 179.449 393.229 183.82 396.966C189.905 402.159 197.643 405.012 205.643 405.012C213.642 405.012 221.38 402.159 227.465 396.966C231.837 393.23 237.094 390.679 242.733 389.554C248.373 388.43 254.207 388.772 259.677 390.546C267.287 393.019 275.53 392.695 282.923 389.631C290.315 386.568 296.371 380.967 300.002 373.835C302.616 368.716 306.498 364.352 311.279 361.161C316.06 357.97 321.58 356.058 327.31 355.608C335.258 354.961 342.718 351.51 348.356 345.872C353.995 340.233 357.446 332.773 358.092 324.825C358.545 319.093 360.46 313.572 363.655 308.791C366.85 304.01 371.219 300.128 376.342 297.517C383.528 293.896 389.176 287.817 392.259 280.385C395.342 272.952 395.654 264.66 393.14 257.016V257.06ZM205.632 365.238C239.261 365.198 272.05 354.725 299.475 335.262C326.901 315.8 347.612 288.307 358.752 256.576H349.429C338.505 285.902 318.876 311.187 293.174 329.04C267.472 346.894 236.926 356.462 205.632 356.462C174.337 356.462 143.791 346.894 118.089 329.04C92.3866 311.187 72.7575 285.902 61.8336 256.576H52.489C63.6386 288.305 84.3551 315.795 111.783 335.257C139.211 354.718 172 365.193 205.632 365.238Z" fill="#FF1B21"/>
<path d="M19.4192 204.774V243.934H0.202148V157.875H29.3795C31.9824 157.807 34.5758 158.217 37.0311 159.084C38.9307 159.749 40.653 160.839 42.0662 162.272C43.4069 163.782 44.3979 165.569 44.9686 167.505C45.6438 169.653 46.1005 171.863 46.3318 174.102C46.5517 176.286 46.6616 178.924 46.6616 182.017C46.6616 183.622 46.6616 184.963 46.6616 185.975C46.5765 187.287 46.3779 188.589 46.0679 189.867C45.8105 191.241 45.3276 192.563 44.6388 193.78C43.9104 194.966 42.9715 196.01 41.8684 196.859C40.5271 197.927 38.9877 198.719 37.3389 199.189C38.9279 199.43 40.4359 200.048 41.7364 200.992C42.8529 201.832 43.7132 202.967 44.221 204.268C44.6911 205.431 45.0375 206.639 45.2544 207.874C45.4394 209.097 45.5276 210.332 45.5182 211.568C45.5182 225.787 45.4523 236.59 45.3204 243.978H26.719V210.381C26.7523 209.304 26.6188 208.229 26.3232 207.193C26.2084 206.817 26.0132 206.471 25.7512 206.179C25.4892 205.887 25.1667 205.655 24.8061 205.5C24.1157 205.165 23.3711 204.957 22.6073 204.884C21.5475 204.787 20.4831 204.751 19.4192 204.774ZM19.5291 173.816V189.845H24.3004C26.8069 189.845 28.0822 187.228 28.0822 181.973C28.0822 178.477 27.5765 176.234 26.5871 175.267C24.8215 174.068 22.6802 173.553 20.5625 173.816H19.5291Z" fill="#FF1B21"/>
<path d="M55.1699 243.934V157.875H93.2082V174.563H74.5188V191.34H92.4386V207.501H74.5188V227.113H94.4395V243.912L55.1699 243.934Z" fill="#FF1B21"/>
<path d="M122.668 244.901C119.73 244.921 116.808 244.484 114.005 243.604C111.34 242.801 108.833 241.544 106.595 239.888C104.383 238.217 102.598 236.048 101.384 233.556C100.069 230.868 99.4062 227.907 99.4492 224.915V203.301H118.249V222.122C118.191 223.464 118.544 224.791 119.26 225.926C119.621 226.426 120.103 226.825 120.66 227.086C121.218 227.348 121.834 227.463 122.448 227.421C125.329 227.421 126.846 224.915 126.846 219.902C126.846 219.506 126.846 219 126.846 218.362C126.846 217.725 126.846 217.307 126.846 217.087V157.875H146.019V222.386C146.159 225.44 145.643 228.488 144.505 231.325C143.367 234.163 141.634 236.723 139.422 238.833C134.843 242.964 128.831 245.142 122.668 244.901Z" fill="#FF1B21"/>
<path d="M156.092 243.934V157.875H194.13V174.563H175.441V191.34H193.382V207.501H175.441V227.113H195.361V243.912L156.092 243.934Z" fill="#FF1B21"/>
<path d="M249.603 206.885V223.133C249.603 230.631 247.405 236.128 243.227 239.646C239.049 243.164 233.047 244.901 225.395 244.901C219.344 245.156 213.425 243.078 208.861 239.096C204.624 235.227 202.499 229.73 202.484 222.606V182.677C202.484 174.116 204.368 167.732 208.135 163.525C211.895 159.282 217.81 157.171 225.835 157.171C228.904 157.139 231.962 157.546 234.916 158.38C237.569 159.127 240.065 160.349 242.282 161.986C244.461 163.605 246.2 165.744 247.339 168.209C248.616 171 249.248 174.044 249.186 177.114V192.285H230.364V182.281C230.364 177.136 228.869 174.563 225.835 174.563C225.141 174.469 224.435 174.579 223.802 174.88C223.17 175.18 222.638 175.659 222.273 176.256C221.633 177.754 221.339 179.378 221.416 181.005V221.682C221.373 223.298 221.792 224.892 222.625 226.278C222.933 226.862 223.395 227.351 223.961 227.692C224.526 228.033 225.175 228.213 225.835 228.213C226.437 228.213 227.033 228.086 227.582 227.839C228.132 227.593 228.623 227.233 229.023 226.783C230.079 225.304 230.556 223.489 230.364 221.682V206.885H249.603Z" fill="#FF1B21"/>
<path d="M254.904 157.875H296.505V174.454H285.225V243.934H266.206V174.454H254.904V157.875Z" fill="#FF1B21"/>
<path d="M303.453 243.934V157.875H341.491V174.563H322.802V191.34H340.744V207.501H322.802V227.113H342.745V243.912L303.453 243.934Z" fill="#FF1B21"/>
<path d="M351.145 243.934V157.875H377.332C384.441 157.875 389.623 159.685 392.877 163.306C396.328 167.475 398.093 172.786 397.824 178.191L398.044 218.384C398.044 226.989 396.358 233.402 392.987 237.623C389.615 241.845 384.184 243.949 376.694 243.934H351.145ZM370.274 173.112V228.213C370.486 228.192 370.699 228.192 370.911 228.213H372.121H373.55C377.2 228.213 379.025 226.674 379.025 223.617V181.204C379.25 178.95 378.725 176.685 377.529 174.761C376.851 174.105 376.036 173.607 375.143 173.303C374.25 172.999 373.3 172.896 372.362 173.002C371.967 173.002 371.263 173.024 370.274 173.112Z" fill="#FF1B21"/>
<path d="M259.983 127.95H146.132V137.096H259.983V127.95Z" fill="#FF1B21"/>
<path d="M259.983 257.588H146.132V266.735H259.983V257.588Z" fill="#FF1B21"/>
</svg>
