<svg width="28" height="28" viewBox="0 0 28 28" fill="none" xmlns="http://www.w3.org/2000/svg">
<rect x="0.359619" width="27.3596" height="27.3596" rx="8.61287" fill="white"/>
<path d="M22.245 8.81139C21.6302 9.07154 20.9782 9.2424 20.3106 9.3183C21.0143 8.91573 21.5409 8.28215 21.7924 7.53565C21.132 7.91159 20.4081 8.17506 19.6535 8.31758C19.1466 7.79879 18.4748 7.45473 17.7424 7.33888C17.01 7.22304 16.2582 7.34189 15.6037 7.67698C14.9492 8.01206 14.4288 8.5446 14.1234 9.1918C13.818 9.839 13.7446 10.5646 13.9147 11.2558C12.5756 11.1916 11.2655 10.8587 10.0695 10.2787C8.87359 9.69872 7.81853 8.88461 6.97283 7.88925C6.67349 8.3811 6.51618 8.94022 6.51702 9.50935C6.51702 10.6264 7.11135 11.6133 8.01492 12.191C7.4802 12.1749 6.95724 12.0368 6.48964 11.7881V11.8282C6.4898 12.5721 6.75891 13.2931 7.25135 13.869C7.74379 14.4448 8.42925 14.84 9.1915 14.9875C8.69511 15.1162 8.17462 15.1351 7.66944 15.043C7.88435 15.6833 8.30324 16.2434 8.86743 16.6447C9.43163 17.046 10.1129 17.2684 10.8158 17.2809C10.1172 17.8058 9.31728 18.1938 8.46178 18.4227C7.60629 18.6517 6.71201 18.7171 5.83008 18.6152C7.36962 19.5623 9.16178 20.0651 10.9922 20.0635C17.1876 20.0635 20.5756 15.1539 20.5756 10.896C20.5756 10.7574 20.5715 10.6172 20.5651 10.48C21.2246 10.0241 21.7937 9.45929 22.2458 8.81216L22.245 8.81139Z" fill="#9CA6AF"/>
</svg>
