<svg width="28" height="28" viewBox="0 0 28 28" fill="none" xmlns="http://www.w3.org/2000/svg">
<rect x="0.0786133" width="27.3596" height="27.3596" rx="8.61287" fill="white"/>
<path d="M19.0046 13.5569C18.9523 12.552 18.6028 11.5853 18.0004 10.7793C17.8169 10.977 17.6207 11.1625 17.4131 11.3347C16.7753 11.8645 16.0626 12.2969 15.2981 12.6179C15.4047 12.8413 15.5024 13.0577 15.5886 13.262V13.2639C15.6129 13.321 15.6363 13.3784 15.6588 13.4363C16.6253 13.3277 17.6442 13.3673 18.6318 13.5007C18.7633 13.5186 18.8872 13.5378 19.0046 13.5569ZM13.0133 8.80092C13.6355 9.67754 14.2092 10.5875 14.7319 11.5268C15.5126 11.2191 16.158 10.831 16.6777 10.3988C16.8581 10.2502 17.0279 10.0891 17.1859 9.91683C16.2672 9.14419 15.1049 8.72134 13.9045 8.72304C13.6058 8.72283 13.3076 8.74868 13.0133 8.80028V8.80092ZM8.95892 12.5515C9.39381 12.5405 9.82818 12.5143 10.2612 12.4729C11.308 12.3793 12.3458 12.2039 13.3651 11.9482C12.8324 11.0227 12.2572 10.1222 11.6414 9.24971C10.9837 9.57554 10.4038 10.039 9.94092 10.6087C9.47808 11.1784 9.14317 11.841 8.95892 12.5515ZM9.93566 17.0444C10.1834 16.6825 10.5089 16.2752 10.9411 15.8321C11.8693 14.8809 12.9648 14.1404 14.2327 13.7318L14.2722 13.7204C14.1669 13.488 14.068 13.2805 13.9684 13.0852C12.7963 13.4267 11.5616 13.6399 10.3315 13.7504C9.73137 13.8046 9.19321 13.8282 8.79741 13.8321C8.79628 15.002 9.19851 16.1365 9.9363 17.0444H9.93566ZM15.8229 18.5638C15.5767 17.3223 15.2282 16.1033 14.781 14.9193C13.503 15.3834 12.4847 16.062 11.6976 16.8714C11.38 17.1922 11.098 17.5464 10.8569 17.928C11.7371 18.5848 12.8063 18.9388 13.9045 18.9373C14.562 18.9382 15.2135 18.8118 15.8229 18.5651V18.5638ZM17.0186 17.8775C18.0153 17.1113 18.6943 16.0043 18.9255 14.7686C18.7084 14.7143 18.4333 14.6601 18.1307 14.6179C17.4579 14.521 16.7752 14.514 16.1006 14.5969C16.4805 15.6686 16.7872 16.7649 17.0186 17.8782V17.8775ZM13.9045 20.2141C10.3787 20.2141 7.52063 17.356 7.52063 13.8302C7.52063 10.3043 10.3787 7.44626 13.9045 7.44626C17.4304 7.44626 20.2884 10.3043 20.2884 13.8302C20.2884 17.356 17.4304 20.2141 13.9045 20.2141Z" fill="#9CA6AF"/>
</svg>
