<svg width="197" height="63" viewBox="0 0 197 63" fill="none" xmlns="http://www.w3.org/2000/svg">
<path d="M52.8436 28.8013C54.211 28.8013 55.3172 27.6949 55.3172 26.3309V22.09C55.3172 16.0501 50.3967 11.1377 44.3491 11.1377H42.5754V8.77085C42.5754 7.40679 41.4692 6.30039 40.1018 6.30039C38.7344 6.30039 37.6282 7.40679 37.6282 8.77085V11.1377H21.3391V8.77085C21.3391 7.40656 20.2305 6.30039 18.8654 6.30039C17.5004 6.30039 16.3918 7.40656 16.3918 8.77085V11.1377H14.6182C8.57051 11.1377 3.65 16.0501 3.65 22.09V47.5354C3.65 53.5753 8.57051 58.4877 14.6182 58.4877H23.1127C24.4778 58.4877 25.5863 57.3815 25.5863 56.0172C25.5863 54.653 24.4778 53.5468 23.1127 53.5468H14.6182C11.2985 53.5468 8.59727 50.8489 8.59727 47.5354V28.8013H17.8036C19.1687 28.8013 20.2773 27.6952 20.2773 26.3309C20.2773 24.9666 19.1687 23.8604 17.8036 23.8604H8.59727V22.09C8.59727 18.7765 11.2985 16.0786 14.6182 16.0786H44.3491C47.6687 16.0786 50.37 18.7765 50.37 22.09V26.3309C50.37 27.6949 51.4762 28.8013 52.8436 28.8013Z" fill="#007BFF" stroke="#007BFF" stroke-width="0.7"/>
<path d="M52.8469 52.2619C53.6076 52.2619 54.2247 51.6461 54.2247 50.886C54.2247 50.1259 53.6076 49.5102 52.8469 49.5102C52.0862 49.5102 51.4691 50.1259 51.4691 50.886C51.4691 51.6461 52.0862 52.2619 52.8469 52.2619Z" fill="#007BFF" stroke="#007BFF" stroke-width="0.3"/>
<path d="M50.1692 56.2112C50.9299 56.2112 51.547 55.5954 51.547 54.8353C51.547 54.0752 50.9299 53.4594 50.1692 53.4594C49.4085 53.4594 48.7914 54.0752 48.7914 54.8353C48.7914 55.5954 49.4085 56.2112 50.1692 56.2112Z" fill="#007BFF" stroke="#007BFF" stroke-width="0.3"/>
<path d="M53.7703 47.5588C54.531 47.5588 55.1481 46.943 55.1481 46.1829C55.1481 45.4228 54.531 44.807 53.7703 44.807C53.0096 44.807 52.3925 45.4228 52.3925 46.1829C52.3925 46.943 53.0096 47.5588 53.7703 47.5588Z" fill="#007BFF" stroke="#007BFF" stroke-width="0.3"/>
<path d="M46.1921 58.8908C46.9529 58.8908 47.5699 58.2751 47.5699 57.515C47.5699 56.7548 46.9529 56.1391 46.1921 56.1391C45.4314 56.1391 44.8144 56.7548 44.8144 57.515C44.8144 58.2751 45.4314 58.8908 46.1921 58.8908Z" fill="#007BFF" stroke="#007BFF" stroke-width="0.3"/>
<path d="M41.4953 56.8611H41.4957C41.914 56.8611 42.3152 57.027 42.6112 57.3225C42.9071 57.618 43.0735 58.0189 43.0735 58.437C43.0735 58.8551 42.9071 59.256 42.6112 59.5515C42.3153 59.847 41.9141 60.0129 41.4959 60.0129C41.4959 60.0129 41.4958 60.0129 41.4957 60.0129V59.6629L41.4953 56.8611ZM41.4953 56.8611C39.783 56.8632 38.0951 56.4549 36.5737 55.6705C35.0522 54.8861 33.7415 53.7487 32.7517 52.3537C31.7619 50.9587 31.1219 49.3469 30.8854 47.6537C30.6489 45.9606 30.8229 44.2355 31.3926 42.6234C31.9623 41.0112 32.9112 39.5591 34.1597 38.3891C35.4081 37.219 36.9196 36.3652 38.5671 35.8993C40.2147 35.4335 41.9502 35.3693 43.6277 35.7121C44.9589 35.9841 46.2226 36.5061 47.3532 37.2469M41.4953 56.8611L47.3532 37.2469M47.3532 37.2469H46.4066C45.9884 37.2469 45.5871 37.4128 45.2912 37.7083C44.9953 38.0038 44.8289 38.4047 44.8289 38.8228C44.8289 39.2409 44.9953 39.6418 45.2912 39.9373C45.5747 40.2204 45.9548 40.3845 46.354 40.3978L53.2201 42.3849L53.2678 42.3987H53.3174C53.7357 42.3987 54.1369 42.2328 54.4329 41.9373C54.7288 41.6418 54.8952 41.2409 54.8952 40.8228V40.7731L54.8813 40.7254L52.8944 33.8665C52.881 33.4676 52.7165 33.0878 52.433 32.8047C52.1371 32.5093 51.7358 32.3434 51.3175 32.3434C50.8993 32.3434 50.498 32.5093 50.2021 32.8047C49.9062 33.1002 49.7398 33.5011 49.7398 33.9192V35.0781C48.1546 33.9038 46.3338 33.0797 44.3987 32.6644L47.3532 37.2469Z" fill="#007BFF" stroke="#007BFF" stroke-width="0.7"/>
<path d="M45.291 50.705L45.291 50.705L42.0113 47.4304V40.6448C42.0113 40.2799 41.8661 39.9299 41.6077 39.6719C41.3493 39.4138 40.9989 39.2689 40.6336 39.2689C40.2682 39.2689 39.9178 39.4138 39.6594 39.6719C39.401 39.9299 39.2558 40.2799 39.2558 40.6448V48.0002V48.0002C39.2558 48.3651 39.4011 48.7151 39.6595 48.973L43.3429 52.6507L43.3429 52.6507C43.6013 52.9086 43.9517 53.0535 44.3169 53.0535C44.6822 53.0535 45.0325 52.9086 45.2909 52.6507L45.291 52.6507C45.5493 52.3927 45.6945 52.0427 45.6945 51.6778C45.6945 51.3129 45.5493 50.963 45.291 50.705Z" fill="#007BFF" stroke="#007BFF" stroke-width="0.3"/>
<path d="M185.52 44.884L189.09 41.042H193L186.846 47.366L191.232 55.662H184.025L181.645 51.174L177.157 55.662H173.247L180.353 48.726L176.307 41.042H183.481L185.52 44.884Z" fill="#007BFF"/>
<path d="M171.786 55.6625H164.884L167.978 41.0425H174.948L171.786 55.6625ZM175.832 36.5885C175.832 37.1099 175.719 37.5632 175.492 37.9485C175.288 38.3339 175.005 38.6625 174.642 38.9345C174.302 39.2065 173.906 39.4105 173.452 39.5465C172.999 39.6825 172.534 39.7505 172.058 39.7505C171.152 39.7505 170.392 39.5352 169.78 39.1045C169.168 38.6739 168.862 37.9939 168.862 37.0645C168.862 36.5659 168.964 36.1239 169.168 35.7385C169.372 35.3305 169.644 35.0019 169.984 34.7525C170.347 34.4805 170.755 34.2765 171.208 34.1405C171.684 34.0045 172.172 33.9365 172.67 33.9365C173.554 33.9365 174.302 34.1519 174.914 34.5825C175.526 35.0132 175.832 35.6819 175.832 36.5885Z" fill="#007BFF"/>
<path d="M159.746 32.8145H166.715L161.853 55.6625H156.346L155.734 53.4865H155.496C155.36 53.6905 155.145 53.9398 154.85 54.2345C154.578 54.5065 154.227 54.7785 153.796 55.0505C153.365 55.2998 152.855 55.5038 152.266 55.6625C151.677 55.8438 150.997 55.9345 150.226 55.9345C149.433 55.9345 148.753 55.8211 148.186 55.5945C147.642 55.3451 147.189 55.0165 146.826 54.6085C146.486 54.2005 146.237 53.7131 146.078 53.1465C145.92 52.5571 145.84 51.9225 145.84 51.2425C145.84 50.9478 145.863 50.4831 145.908 49.8485C145.954 49.1911 146.056 48.4771 146.214 47.7065C146.396 46.9131 146.645 46.1085 146.962 45.2925C147.302 44.4538 147.744 43.6945 148.288 43.0145C148.855 42.3345 149.546 41.7791 150.362 41.3485C151.178 40.8951 152.164 40.6685 153.32 40.6685C153.683 40.6685 154.068 40.7025 154.476 40.7705C154.884 40.8385 155.269 40.9631 155.632 41.1445C156.017 41.3258 156.357 41.5865 156.652 41.9265C156.946 42.2665 157.162 42.7085 157.298 43.2525H157.536L159.746 32.8145ZM155.598 44.0005C155.054 44.0005 154.601 44.3065 154.238 44.9185C153.875 45.5078 153.581 46.1991 153.354 46.9925C153.127 47.7858 152.957 48.5791 152.844 49.3725C152.753 50.1658 152.708 50.7551 152.708 51.1405C152.708 51.5938 152.776 51.9791 152.912 52.2965C153.048 52.5911 153.309 52.7385 153.694 52.7385C153.921 52.7385 154.136 52.6931 154.34 52.6025C154.567 52.4891 154.771 52.3645 154.952 52.2285C155.156 52.0698 155.326 51.9111 155.462 51.7525C155.598 51.5938 155.711 51.4578 155.802 51.3445L157.128 45.1565C156.969 44.9071 156.754 44.6578 156.482 44.4085C156.232 44.1365 155.938 44.0005 155.598 44.0005Z" fill="#007BFF"/>
<path d="M134.793 43.218C135.269 42.7646 135.801 42.3453 136.391 41.96C136.912 41.6426 137.524 41.348 138.227 41.076C138.929 40.804 139.711 40.668 140.573 40.668C141.751 40.668 142.726 40.974 143.496 41.586C144.267 42.1753 144.652 42.9913 144.652 44.034C144.652 44.3286 144.618 44.6913 144.55 45.122C144.482 45.53 144.403 45.9606 144.312 46.414C144.222 46.8673 144.12 47.332 144.006 47.808C143.916 48.2613 143.836 48.6693 143.768 49.032L142.34 55.662H135.439L137.309 46.788C137.354 46.4933 137.411 46.1986 137.479 45.904C137.547 45.5866 137.581 45.3033 137.581 45.054C137.581 44.714 137.49 44.442 137.309 44.238C137.15 44.0113 136.901 43.898 136.561 43.898C136.153 43.898 135.756 44.0453 135.371 44.34C135.008 44.6346 134.725 44.884 134.521 45.088L132.277 55.662H125.341L128.435 41.042H133.977L134.589 43.218H134.793Z" fill="#007BFF"/>
<path d="M114.501 48.828C114.41 49.3266 114.342 49.8026 114.297 50.256C114.274 50.7093 114.263 51.1173 114.263 51.48C114.263 51.684 114.274 51.9106 114.297 52.16C114.32 52.4093 114.365 52.6473 114.433 52.874C114.524 53.078 114.637 53.2593 114.773 53.418C114.932 53.554 115.147 53.622 115.419 53.622C115.623 53.622 115.85 53.554 116.099 53.418C116.371 53.282 116.632 53.0893 116.881 52.84C117.153 52.5906 117.402 52.2846 117.629 51.922C117.878 51.5593 118.071 51.1513 118.207 50.698H123.783L122.899 54.336C122.446 54.6306 121.924 54.88 121.335 55.084C120.746 55.288 120.122 55.458 119.465 55.594C118.808 55.7073 118.139 55.7866 117.459 55.832C116.779 55.9 116.133 55.934 115.521 55.934C114.388 55.934 113.334 55.832 112.359 55.628C111.384 55.424 110.534 55.0726 109.809 54.574C109.084 54.0753 108.506 53.418 108.075 52.602C107.667 51.7633 107.463 50.732 107.463 49.508C107.463 48.3973 107.633 47.3093 107.973 46.244C108.336 45.1786 108.925 44.238 109.741 43.422C110.58 42.5833 111.69 41.9146 113.073 41.416C114.478 40.9173 116.224 40.668 118.309 40.668C120.576 40.668 122.276 41.0193 123.409 41.722C124.565 42.4246 125.143 43.524 125.143 45.02C125.143 45.632 125.052 46.3006 124.871 47.026C124.69 47.7286 124.418 48.3293 124.055 48.828H114.501ZM119.023 44.782C119.023 44.0793 118.91 43.6033 118.683 43.354C118.456 43.1046 118.184 42.98 117.867 42.98C117.504 42.98 117.164 43.1046 116.847 43.354C116.552 43.5806 116.28 43.898 116.031 44.306C115.782 44.6913 115.555 45.1446 115.351 45.666C115.147 46.1646 114.977 46.6973 114.841 47.264H118.717C118.762 46.992 118.808 46.7086 118.853 46.414C118.898 46.1646 118.932 45.8926 118.955 45.598C119 45.3033 119.023 45.0313 119.023 44.782Z" fill="#007BFF"/>
<path d="M92.0998 49.9503C91.9865 50.4717 91.8958 50.9363 91.8278 51.3443C91.7598 51.7523 91.7258 52.0697 91.7258 52.2963C91.7258 52.7497 91.8845 53.033 92.2018 53.1463C92.5418 53.2597 93.1651 53.3163 94.0717 53.3163L93.5617 55.6623C93.4031 55.7077 93.1538 55.7417 92.8138 55.7643C92.4965 55.787 92.1338 55.8097 91.7258 55.8323C91.3405 55.8777 90.9326 55.9003 90.5019 55.9003C90.0939 55.923 89.7313 55.9343 89.414 55.9343C88.8473 55.9343 88.292 55.889 87.7481 55.7983C87.2041 55.7303 86.7168 55.583 86.2861 55.3563C85.8555 55.107 85.5042 54.7557 85.2322 54.3023C84.9829 53.849 84.8582 53.237 84.8582 52.4663C84.8582 52.1943 84.8695 51.8543 84.8922 51.4463C84.9375 51.0383 85.0169 50.585 85.1302 50.0863L86.5581 43.3203H83.9062L84.3822 41.0423C85.2208 40.861 85.9575 40.657 86.5921 40.4303C87.2267 40.2037 87.8047 39.9203 88.326 39.5803C88.87 39.2403 89.38 38.821 89.8559 38.3223C90.3546 37.8237 90.8872 37.2117 91.4539 36.4863H94.9557L93.9697 41.0423H95.6356C96.4969 41.0423 97.2449 40.9403 97.8795 40.7363C98.5142 40.5323 99.0921 40.2377 99.6134 39.8523C100.135 39.467 100.633 38.991 101.109 38.4243C101.608 37.8577 102.141 37.2117 102.707 36.4863H106.209L105.223 41.0423H107.875L107.433 43.3203H104.747L103.353 49.9503C103.24 50.4717 103.149 50.9363 103.081 51.3443C103.013 51.7523 102.979 52.0697 102.979 52.2963C102.979 52.7497 103.138 53.033 103.455 53.1463C103.795 53.2597 104.419 53.3163 105.325 53.3163L104.815 55.6623C104.657 55.7077 104.407 55.7417 104.067 55.7643C103.75 55.787 103.387 55.8097 102.979 55.8323C102.594 55.8777 102.186 55.9003 101.755 55.9003C101.347 55.923 100.985 55.9343 100.667 55.9343C100.101 55.9343 99.5454 55.889 99.0015 55.7983C98.4575 55.7303 97.9702 55.583 97.5395 55.3563C97.1089 55.107 96.7576 54.7557 96.4856 54.3023C96.2363 53.849 96.1116 53.237 96.1116 52.4663C96.1116 52.1943 96.1229 51.8543 96.1456 51.4463C96.1909 51.0383 96.2703 50.585 96.3836 50.0863L97.8115 43.3203H93.4938L92.0998 49.9503Z" fill="#007BFF"/>
<path d="M81.8323 55.6623H73.8768L73.4008 50.2563H67.1111L64.6972 55.6623H61.3994L71.4289 34.0723H79.4865L81.8323 55.6623ZM68.2331 47.7743H73.1628L72.3808 38.5263L68.2331 47.7743Z" fill="#007BFF"/>
<path d="M147.638 28.662H138.737L142.426 11.3399L132.923 28.662H127.47L125.666 10.7385L121.817 28.662H118.208L123.621 3.2002H133.845L135.088 17.555L142.786 3.2002H153.091L147.638 28.662Z" fill="#007BFF"/>
<path d="M117.103 28.662H107.721L107.159 22.2865H99.7419L96.8951 28.662H93.0059L104.834 3.2002H114.337L117.103 28.662ZM101.065 19.3594H106.879L105.957 8.45294L101.065 19.3594Z" fill="#007BFF"/>
<path d="M82.0424 22.4071C83.0849 22.4071 83.8601 22.2868 84.3679 22.0462C84.8758 21.7789 85.2099 21.1908 85.3703 20.2819L87.2147 9.85664H84.0071C82.9913 9.85664 82.2295 9.99029 81.7217 10.2576C81.2138 10.4982 80.8797 11.0729 80.7193 11.9818L78.8749 22.4071H82.0424ZM85.3302 3C88.7249 3 91.144 3.66829 92.5875 5.00486C94.0309 6.31471 94.7526 8.34631 94.7526 11.0997C94.7526 13.853 94.3115 16.74 93.4294 19.7607C92.5741 22.7546 91.1975 25.0936 89.2996 26.7777C87.4285 28.435 84.6753 29.2637 81.04 29.2637C77.4315 29.2637 74.9055 28.6088 73.462 27.299C72.0186 25.9624 71.2969 23.9174 71.2969 21.1641C71.2969 19.8542 71.484 18.13 71.8582 15.9915C72.2325 13.8263 72.727 11.9684 73.3418 10.418C73.9565 8.84084 74.7852 7.47753 75.8277 6.32807C77.8324 4.10936 80.9999 3 85.3302 3ZM70.6955 15.9514C70.642 16.1653 70.5886 16.4593 70.5351 16.8336L58.7775 15.1495H70.8158L70.6955 15.9514ZM70.2544 18.9988C70.1742 19.6136 70.1341 20.175 70.1341 20.6829L58.3364 18.9988H70.2544ZM71.778 11.3001L71.2969 12.9441L59.7398 11.3001H71.778ZM70.1742 22.8482C70.2812 23.5966 70.3747 24.158 70.4549 24.5322L58.8577 22.8482H70.1742ZM73.4219 7.4508C73.0477 8.14582 72.7804 8.68045 72.62 9.05469L61.6242 7.4508H73.4219ZM71.3771 26.7376C71.7246 27.3524 72.1255 27.8469 72.5799 28.2212L59.707 26.7376H71.3771ZM77.231 3.60146C76.4558 4.08263 75.8544 4.5237 75.4267 4.92467L63.1576 3.60146H77.231Z" fill="#007BFF"/>
</svg>
